<svg width="28" height="28" viewBox="0 0 28 28" fill="none" xmlns="http://www.w3.org/2000/svg">
<g clip-path="url(#clip0_1579_1401)">
<path d="M14.0777 8.54895C11.0444 8.54895 8.6333 10.9601 8.6333 13.9934C8.6333 17.0267 11.0444 19.4378 14.0777 19.4378C17.1111 19.4378 19.5222 17.0267 19.5222 13.9934C19.5222 10.9601 17.1111 8.54895 14.0777 8.54895ZM14.0777 17.8823C11.9 17.8823 10.1889 16.1712 10.1889 13.9934C10.1889 11.8156 11.9 10.1045 14.0777 10.1045C16.2555 10.1045 17.9666 11.8156 17.9666 13.9934C17.9666 16.1712 16.2555 17.8823 14.0777 17.8823Z" fill="#3C3C3C"/>
<path d="M25.5112 11.4267L23.3334 10.7267L22.8668 9.56006L23.9557 7.53784C24.189 7.07117 24.1112 6.44895 23.7223 6.06006L21.8557 4.19339C21.4668 3.80451 20.8446 3.72673 20.3779 3.96006L18.3557 5.04895L17.189 4.58228L16.489 2.40451C16.3334 1.93784 15.8668 1.54895 15.3223 1.54895H12.6779C12.1334 1.54895 11.6668 1.93784 11.589 2.48228L10.889 4.66006C10.4223 4.73784 10.0334 4.89339 9.64455 5.12673L7.62233 4.03784C7.15566 3.80451 6.53344 3.88228 6.14455 4.27117L4.27789 6.13784C3.889 6.52673 3.81122 7.14895 4.04455 7.61562L5.05566 9.56006C4.90011 9.94895 4.74455 10.4156 4.589 10.8045L2.41122 11.5045C1.94455 11.6601 1.55566 12.1267 1.55566 12.6712V15.3156C1.55566 15.8601 1.94455 16.3267 2.489 16.4823L4.66678 17.1823L5.13344 18.349L4.04455 20.3712C3.81122 20.8378 3.889 21.4601 4.27789 21.849L6.14455 23.7156C6.53344 24.1045 7.15566 24.1823 7.62233 23.9489L9.64455 22.8601L10.8112 23.3267L11.5112 25.5823C11.6668 26.049 12.1334 26.4378 12.6779 26.4378H15.3223C15.8668 26.4378 16.3334 26.049 16.489 25.5823L17.189 23.3267L18.3557 22.8601L20.3779 23.9489C20.8446 24.1823 21.4668 24.1045 21.8557 23.7156L23.7223 21.849C24.1112 21.4601 24.189 20.8378 23.9557 20.3712L22.8668 18.349L23.3334 17.1823L25.589 16.4823C26.0557 16.3267 26.4446 15.8601 26.4446 15.3156V12.6712C26.4446 12.1267 26.0557 11.5823 25.5112 11.4267ZM24.889 15.0823L22.089 15.9378L22.0112 16.3267L21.3112 17.9601L21.0779 18.349L22.4779 20.9156L20.9223 22.4712L18.3557 21.0712L17.9668 21.3045C17.4223 21.6156 16.8779 21.8489 16.3334 22.0045L15.9446 22.0823L15.089 24.8823H12.9112L12.0557 22.0823L11.6668 22.0045L10.0334 21.3045L9.64455 21.0712L7.07789 22.4712L5.52233 20.9156L6.92233 18.349L6.689 17.9601C6.37789 17.4156 6.14455 16.8712 5.989 16.3267L5.91122 15.9378L3.11122 15.0823V12.9045L5.75566 12.1267L5.91122 11.7378C6.06678 11.1156 6.30011 10.5712 6.61122 10.0267L6.84455 9.63784L5.52233 7.07117L7.07789 5.51562L9.56678 6.91562L9.95566 6.68228C10.5001 6.37117 11.0446 6.13784 11.6668 5.98228L12.0557 5.82673L12.9112 3.10451H15.089L15.9446 5.82673L16.3334 5.98228C16.8779 6.13784 17.4223 6.37117 17.9668 6.68228L18.3557 6.91562L20.9223 5.51562L22.4779 7.07117L21.0779 9.63784L21.3112 10.0267C21.6223 10.5712 21.8557 11.1156 22.0112 11.6601L22.089 12.049L24.889 12.9045V15.0823Z" fill="#3C3C3C"/>
</g>
<defs>
<clipPath id="clip0_1579_1401">
<rect width="28" height="28" fill="white" transform="translate(0 -0.0065918)"/>
</clipPath>
</defs>
</svg>
