<svg width="29" height="28" viewBox="0 0 29 28" fill="none" xmlns="http://www.w3.org/2000/svg">
<path d="M14.4418 20.9935C14.8502 20.9935 15.1955 20.8523 15.4778 20.57C15.7602 20.2876 15.9009 19.9427 15.9002 19.5351C15.8994 19.1276 15.7586 18.7822 15.4778 18.4991C15.1971 18.216 14.8517 18.0752 14.4418 18.0768C14.0319 18.0783 13.687 18.2195 13.407 18.5003C13.127 18.7811 12.9858 19.126 12.9835 19.5351C12.9812 19.9442 13.1223 20.2896 13.407 20.5711C13.6917 20.8527 14.0366 20.9935 14.4418 20.9935ZM13.3918 16.5018H15.5502C15.5502 15.8601 15.6233 15.3546 15.7695 14.9851C15.9157 14.6157 16.3287 14.1101 17.0085 13.4685C17.5141 12.9629 17.9127 12.4815 18.2043 12.0241C18.496 11.5668 18.6418 11.0177 18.6418 10.3768C18.6418 9.2879 18.2432 8.45179 17.446 7.86845C16.6488 7.28512 15.7057 6.99345 14.6168 6.99345C13.5085 6.99345 12.6094 7.28512 11.9195 7.86845C11.2296 8.45179 10.7482 9.15179 10.4752 9.96845L12.4002 10.7268C12.4974 10.3768 12.7163 9.99762 13.057 9.58929C13.3977 9.18096 13.9176 8.97679 14.6168 8.97679C15.2391 8.97679 15.7057 9.14712 16.0168 9.48779C16.3279 9.82845 16.4835 10.2026 16.4835 10.6101C16.4835 10.999 16.3668 11.3638 16.1335 11.7045C15.9002 12.0451 15.6085 12.3609 15.2585 12.6518C14.4029 13.4101 13.8779 13.9837 13.6835 14.3726C13.4891 14.7615 13.3918 15.4712 13.3918 16.5018ZM14.5002 25.6601C12.8863 25.6601 11.3696 25.3541 9.95016 24.742C8.53072 24.1298 7.296 23.2984 6.246 22.2476C5.196 21.1968 4.36494 19.9621 3.75283 18.5435C3.14072 17.1248 2.83428 15.6081 2.8335 13.9935C2.83272 12.3788 3.13916 10.8621 3.75283 9.44346C4.3665 8.02479 5.19755 6.79007 6.246 5.73929C7.29444 4.68851 8.52916 3.85745 9.95016 3.24612C11.3712 2.63479 12.8878 2.32834 14.5002 2.32679C16.1125 2.32523 17.6292 2.63168 19.0502 3.24612C20.4712 3.86057 21.7059 4.69162 22.7543 5.73929C23.8028 6.78695 24.6342 8.02168 25.2487 9.44346C25.8631 10.8652 26.1692 12.3819 26.1668 13.9935C26.1645 15.605 25.8581 17.1217 25.2475 18.5435C24.6369 19.9652 23.8059 21.2 22.7543 22.2476C21.7028 23.2953 20.4681 24.1267 19.0502 24.742C17.6323 25.3572 16.1156 25.6632 14.5002 25.6601ZM14.5002 23.3268C17.1057 23.3268 19.3127 22.4226 21.121 20.6143C22.9293 18.806 23.8335 16.599 23.8335 13.9935C23.8335 11.3879 22.9293 9.18095 21.121 7.37262C19.3127 5.56429 17.1057 4.66012 14.5002 4.66012C11.8946 4.66012 9.68766 5.56429 7.87933 7.37262C6.071 9.18095 5.16683 11.3879 5.16683 13.9935C5.16683 16.599 6.071 18.806 7.87933 20.6143C9.68766 22.4226 11.8946 23.3268 14.5002 23.3268Z" fill="#3C3C3C"/>
</svg>
