<svg width="28" height="28" viewBox="0 0 28 28" fill="none" xmlns="http://www.w3.org/2000/svg">
<path d="M27.125 22.75H26.25V14C26.25 13.5359 26.0656 13.0908 25.7374 12.7626C25.4092 12.4344 24.9641 12.25 24.5 12.25H18.375V5.25C18.375 4.78587 18.1906 4.34075 17.8624 4.01256C17.5342 3.68437 17.0891 3.5 16.625 3.5H6.125C5.66087 3.5 5.21575 3.68437 4.88756 4.01256C4.55937 4.34075 4.375 4.78587 4.375 5.25V22.75H3.5C3.26794 22.75 3.04538 22.8422 2.88128 23.0063C2.71719 23.1704 2.625 23.3929 2.625 23.625C2.625 23.8571 2.71719 24.0796 2.88128 24.2437C3.04538 24.4078 3.26794 24.5 3.5 24.5H27.125C27.3571 24.5 27.5796 24.4078 27.7437 24.2437C27.9078 24.0796 28 23.8571 28 23.625C28 23.3929 27.9078 23.1704 27.7437 23.0063C27.5796 22.8422 27.3571 22.75 27.125 22.75ZM24.5 14V22.75H18.375V14H24.5ZM6.125 5.25H16.625V22.75H14.875V17.5C14.875 17.2679 14.7828 17.0454 14.6187 16.8813C14.4546 16.7172 14.2321 16.625 14 16.625H8.75C8.51794 16.625 8.29538 16.7172 8.13128 16.8813C7.96719 17.0454 7.875 17.2679 7.875 17.5V22.75H6.125V5.25ZM13.125 22.75H9.625V18.375H13.125V22.75ZM7.875 10.5C7.875 10.2679 7.96719 10.0454 8.13128 9.88128C8.29538 9.71719 8.51794 9.625 8.75 9.625H10.5V7.875C10.5 7.64294 10.5922 7.42038 10.7563 7.25628C10.9204 7.09219 11.1429 7 11.375 7C11.6071 7 11.8296 7.09219 11.9937 7.25628C12.1578 7.42038 12.25 7.64294 12.25 7.875V9.625H14C14.2321 9.625 14.4546 9.71719 14.6187 9.88128C14.7828 10.0454 14.875 10.2679 14.875 10.5C14.875 10.7321 14.7828 10.9546 14.6187 11.1187C14.4546 11.2828 14.2321 11.375 14 11.375H12.25V13.125C12.25 13.3571 12.1578 13.5796 11.9937 13.7437C11.8296 13.9078 11.6071 14 11.375 14C11.1429 14 10.9204 13.9078 10.7563 13.7437C10.5922 13.5796 10.5 13.3571 10.5 13.125V11.375H8.75C8.51794 11.375 8.29538 11.2828 8.13128 11.1187C7.96719 10.9546 7.875 10.7321 7.875 10.5Z" fill="#3C3C3C"/>
</svg>
