<svg width="20" height="20" viewBox="0 0 20 20" fill="none" xmlns="http://www.w3.org/2000/svg">
<rect width="20" height="20" rx="8" fill="white"/>
<path fill-rule="evenodd" clip-rule="evenodd" d="M11.5773 3.86797C11.3313 3.77197 11.0189 3.77197 10.3946 3.77197C9.77033 3.77197 9.45853 3.77197 9.21188 3.86797C9.04959 3.93097 8.90202 4.02383 8.77765 4.14122C8.65329 4.25861 8.55459 4.39821 8.48723 4.55197C8.42474 4.69281 8.4008 4.85766 8.39083 5.09703C8.38609 5.27039 8.33503 5.43977 8.24246 5.58925C8.14989 5.73873 8.01885 5.8634 7.86164 5.95155C7.70124 6.03625 7.52095 6.08112 7.33744 6.082C7.15394 6.08288 6.97317 6.03975 6.81189 5.9566C6.58718 5.84418 6.4243 5.78229 6.26341 5.76208C5.91145 5.71845 5.55556 5.80831 5.27284 6.01218C5.06142 6.16503 4.90519 6.42018 4.59339 6.92987C4.28093 7.43955 4.12536 7.69408 4.09012 7.94355C4.04359 8.27576 4.13932 8.61176 4.35605 8.87766C4.45445 8.99892 4.59339 9.1006 4.80813 9.22818C5.12525 9.41576 5.32868 9.73534 5.32868 10.0878C5.32868 10.4402 5.12525 10.7598 4.80879 10.9467C4.59339 11.0749 4.45444 11.1766 4.35539 11.2979C4.24873 11.4294 4.1704 11.5796 4.12489 11.7398C4.07937 11.9001 4.06756 12.0674 4.09012 12.232C4.12536 12.4808 4.28093 12.736 4.59339 13.2457C4.90586 13.7553 5.06142 14.0099 5.27284 14.1633C5.55472 14.3673 5.91106 14.457 6.26341 14.4134C6.4243 14.3932 6.58718 14.3313 6.81189 14.2189C6.97326 14.1357 7.15415 14.0925 7.33778 14.0934C7.52141 14.0942 7.70183 14.1392 7.8623 14.224C8.1854 14.4008 8.37687 14.7261 8.39083 15.0785C8.4008 15.3185 8.42474 15.4827 8.48723 15.6236C8.62285 15.933 8.88346 16.1793 9.21188 16.3076C9.45786 16.4036 9.77033 16.4036 10.3946 16.4036C11.0189 16.4036 11.3313 16.4036 11.5773 16.3076C11.7396 16.2446 11.8872 16.1517 12.0115 16.0343C12.1359 15.9169 12.2346 15.7773 12.302 15.6236C12.3644 15.4827 12.3884 15.3185 12.3984 15.0785C12.4116 14.7261 12.6038 14.4002 12.9275 14.224C13.0879 14.1393 13.2682 14.0944 13.4517 14.0935C13.6352 14.0926 13.816 14.1358 13.9773 14.2189C14.202 14.3313 14.3649 14.3932 14.5258 14.4134C14.8781 14.4577 15.2345 14.3673 15.5163 14.1633C15.7278 14.0105 15.884 13.7553 16.1958 13.2457C16.5083 12.736 16.6638 12.4814 16.6991 12.232C16.7215 12.0673 16.7096 11.9001 16.664 11.7398C16.6184 11.5795 16.5399 11.4293 16.4331 11.2979C16.3347 11.1766 16.1958 11.0749 15.9811 10.9473C15.6639 10.7598 15.4605 10.4402 15.4605 10.0878C15.4605 9.73534 15.6639 9.41576 15.9804 9.22881C16.1958 9.1006 16.3347 8.99892 16.4338 8.87766C16.5405 8.74615 16.6188 8.59597 16.6643 8.43569C16.7098 8.27541 16.7216 8.10817 16.6991 7.94355C16.6638 7.69471 16.5083 7.43955 16.1958 6.92987C15.8833 6.42018 15.7278 6.16566 15.5163 6.01218C15.2336 5.80831 14.8777 5.71845 14.5258 5.76208C14.3649 5.78229 14.202 5.84418 13.9773 5.9566C13.8159 6.03986 13.635 6.08306 13.4514 6.08217C13.2678 6.08129 13.0874 6.03636 12.9269 5.95155C12.7698 5.86332 12.6389 5.73862 12.5464 5.58914C12.454 5.43967 12.403 5.27033 12.3984 5.09703C12.3884 4.85703 12.3644 4.69281 12.302 4.55197C12.2346 4.39821 12.1359 4.25861 12.0115 4.14122C11.8872 4.02383 11.7396 3.93097 11.5773 3.86797ZM10.3946 11.9825C11.5048 11.9825 12.4043 11.1343 12.4043 10.0878C12.4043 9.04124 11.5042 8.19303 10.3946 8.19303C9.28501 8.19303 8.38485 9.04124 8.38485 10.0878C8.38485 11.1343 9.28501 11.9825 10.3946 11.9825Z" fill="#3C3C3C"/>
</svg>
