<svg width="29" height="28" viewBox="0 0 29 28" fill="none" xmlns="http://www.w3.org/2000/svg">
<path fill-rule="evenodd" clip-rule="evenodd" d="M12.1014 3.79163H16.8988C19.0431 3.79163 20.7418 3.79163 22.0706 3.97013C23.4379 4.15446 24.5451 4.54179 25.4189 5.41446C26.2916 6.28829 26.6789 7.39546 26.8633 8.76279C26.9683 9.54796 27.0114 10.4615 27.0289 11.5196C27.0434 11.6084 27.045 11.6988 27.0336 11.788C27.0406 12.4475 27.0433 13.1631 27.0418 13.9346V14.0653C27.0418 16.2096 27.0418 17.9083 26.8633 19.2371C26.6789 20.6045 26.2916 21.7116 25.4189 22.5855C24.5451 23.4581 23.4379 23.8455 22.0706 24.0298C20.7406 24.2083 19.0431 24.2083 16.8988 24.2083H12.1014C9.9571 24.2083 8.25843 24.2083 6.9296 24.0298C5.56227 23.8455 4.4551 23.4581 3.58127 22.5855C2.7086 21.7116 2.32127 20.6045 2.13693 19.2371C1.95843 17.9071 1.95843 16.2096 1.95843 14.0653V13.9346C1.95688 13.1631 1.9596 12.4475 1.9666 11.788C1.95483 11.6988 1.95601 11.6084 1.9701 11.5196C1.98877 10.4615 2.03193 9.54796 2.13693 8.76279C2.32127 7.39546 2.7086 6.28829 3.58127 5.41446C4.4551 4.54179 5.56227 4.15446 6.9296 3.97013C8.2596 3.79163 9.9571 3.79163 12.1014 3.79163ZM3.71077 12.5416C3.70921 12.9943 3.70843 13.4804 3.70843 14C3.70843 16.2248 3.71077 17.8056 3.87177 19.005C4.02927 20.1775 4.3256 20.8541 4.8191 21.3476C5.3126 21.8411 5.98927 22.1375 7.16293 22.295C8.36227 22.456 9.94193 22.4583 12.1668 22.4583H16.8334C19.0583 22.4583 20.6391 22.456 21.8384 22.295C23.0109 22.1375 23.6876 21.8411 24.1811 21.3476C24.6746 20.8541 24.9709 20.1775 25.1284 19.0038C25.2894 17.8045 25.2918 16.2248 25.2918 14C25.2918 13.4804 25.291 12.9943 25.2894 12.5416H3.71077ZM25.2614 10.7916H3.73877C3.7621 10.1068 3.80177 9.51529 3.87177 8.99496C4.02927 7.82246 4.3256 7.14579 4.8191 6.65229C5.3126 6.15879 5.98927 5.86246 7.16293 5.70496C8.36227 5.54396 9.94193 5.54163 12.1668 5.54163H16.8334C19.0583 5.54163 20.6391 5.54396 21.8384 5.70496C23.0109 5.86246 23.6876 6.15879 24.1811 6.65229C24.6746 7.14579 24.9709 7.82246 25.1284 8.99613C25.1984 9.51529 25.2381 10.1068 25.2614 10.7916ZM6.6251 18.6666C6.6251 18.4346 6.71729 18.212 6.88138 18.0479C7.04547 17.8838 7.26803 17.7916 7.5001 17.7916H12.1668C12.3988 17.7916 12.6214 17.8838 12.7855 18.0479C12.9496 18.212 13.0418 18.4346 13.0418 18.6666C13.0418 18.8987 12.9496 19.1213 12.7855 19.2853C12.6214 19.4494 12.3988 19.5416 12.1668 19.5416H7.5001C7.26803 19.5416 7.04547 19.4494 6.88138 19.2853C6.71729 19.1213 6.6251 18.8987 6.6251 18.6666ZM14.2084 18.6666C14.2084 18.4346 14.3006 18.212 14.4647 18.0479C14.6288 17.8838 14.8514 17.7916 15.0834 17.7916H16.8334C17.0655 17.7916 17.2881 17.8838 17.4521 18.0479C17.6162 18.212 17.7084 18.4346 17.7084 18.6666C17.7084 18.8987 17.6162 19.1213 17.4521 19.2853C17.2881 19.4494 17.0655 19.5416 16.8334 19.5416H15.0834C14.8514 19.5416 14.6288 19.4494 14.4647 19.2853C14.3006 19.1213 14.2084 18.8987 14.2084 18.6666Z" fill="#3C3C3C"/>
</svg>
