<svg width="29" height="28" viewBox="0 0 29 28" fill="none" xmlns="http://www.w3.org/2000/svg">
<path d="M26.75 2.61885L19.7439 2.61888V0.875C19.7439 0.391562 19.3523 0 18.8689 0C18.3854 0 17.9939 0.391562 17.9939 0.875V2.61844H10.9939V0.875C10.9939 0.391562 10.6023 0 10.1189 0C9.63544 0 9.24388 0.391562 9.24388 0.875V2.61844H2.25C1.28356 2.61844 0.5 3.402 0.5 4.36844V26.2434C0.5 27.2099 1.28356 27.9934 2.25 27.9934H26.75C27.7164 27.9934 28.5 27.2099 28.5 26.2434V4.36844C28.5 3.40241 27.7164 2.61885 26.75 2.61885ZM26.75 26.2434H2.25V4.36844H9.24388V5.25C9.24388 5.73341 9.63544 6.125 10.1189 6.125C10.6023 6.125 10.9939 5.73341 10.9939 5.25V4.36888H17.9939V5.25044C17.9939 5.73388 18.3854 6.12544 18.8689 6.12544C19.3523 6.12544 19.7439 5.73388 19.7439 5.25044V4.36888H26.75V26.2434ZM20.625 13.9938H22.375C22.858 13.9938 23.25 13.6018 23.25 13.1188V11.3688C23.25 10.8858 22.858 10.4938 22.375 10.4938H20.625C20.142 10.4938 19.75 10.8858 19.75 11.3688V13.1188C19.75 13.6018 20.142 13.9938 20.625 13.9938ZM20.625 20.9934H22.375C22.858 20.9934 23.25 20.6019 23.25 20.1184V18.3684C23.25 17.8854 22.858 17.4934 22.375 17.4934H20.625C20.142 17.4934 19.75 17.8854 19.75 18.3684V20.1184C19.75 20.6023 20.142 20.9934 20.625 20.9934ZM15.375 17.4934H13.625C13.142 17.4934 12.75 17.8854 12.75 18.3684V20.1184C12.75 20.6019 13.142 20.9934 13.625 20.9934H15.375C15.858 20.9934 16.25 20.6019 16.25 20.1184V18.3684C16.25 17.8858 15.858 17.4934 15.375 17.4934ZM15.375 10.4938H13.625C13.142 10.4938 12.75 10.8858 12.75 11.3688V13.1188C12.75 13.6018 13.142 13.9938 13.625 13.9938H15.375C15.858 13.9938 16.25 13.6018 16.25 13.1188V11.3688C16.25 10.8854 15.858 10.4938 15.375 10.4938ZM8.375 10.4938H6.625C6.142 10.4938 5.75 10.8858 5.75 11.3688V13.1188C5.75 13.6018 6.142 13.9938 6.625 13.9938H8.375C8.858 13.9938 9.25 13.6018 9.25 13.1188V11.3688C9.25 10.8854 8.858 10.4938 8.375 10.4938ZM8.375 17.4934H6.625C6.142 17.4934 5.75 17.8854 5.75 18.3684V20.1184C5.75 20.6019 6.142 20.9934 6.625 20.9934H8.375C8.858 20.9934 9.25 20.6019 9.25 20.1184V18.3684C9.25 17.8858 8.858 17.4934 8.375 17.4934Z" fill="#3C3C3C"/>
</svg>
