<svg width="29" height="28" viewBox="0 0 29 28" fill="none" xmlns="http://www.w3.org/2000/svg">
<path d="M24.125 22.3878L22.375 20.6378V18.375H20.625V21.3622L22.8878 23.625L24.125 22.3878Z" fill="#3C3C3C"/>
<path d="M21.5 27.125C18.1225 27.125 15.375 24.3775 15.375 21C15.375 17.6225 18.1225 14.875 21.5 14.875C24.8775 14.875 27.625 17.6225 27.625 21C27.625 24.3775 24.8775 27.125 21.5 27.125ZM21.5 16.625C19.0876 16.625 17.125 18.5876 17.125 21C17.125 23.4124 19.0876 25.375 21.5 25.375C23.9124 25.375 25.875 23.4124 25.875 21C25.875 18.5876 23.9124 16.625 21.5 16.625ZM25 13.125H26.75V4.375C26.75 3.40987 25.9651 2.625 25 2.625H22.375V4.375H25V13.125Z" fill="#3C3C3C"/>
<path d="M8.375 13.125C9.3415 13.125 10.125 12.3415 10.125 11.375C10.125 10.4085 9.3415 9.625 8.375 9.625C7.4085 9.625 6.625 10.4085 6.625 11.375C6.625 12.3415 7.4085 13.125 8.375 13.125Z" fill="#3C3C3C"/>
<path d="M14.5 13.125C15.4665 13.125 16.25 12.3415 16.25 11.375C16.25 10.4085 15.4665 9.625 14.5 9.625C13.5335 9.625 12.75 10.4085 12.75 11.375C12.75 12.3415 13.5335 13.125 14.5 13.125Z" fill="#3C3C3C"/>
<path d="M20.625 13.125C21.5915 13.125 22.375 12.3415 22.375 11.375C22.375 10.4085 21.5915 9.625 20.625 9.625C19.6585 9.625 18.875 10.4085 18.875 11.375C18.875 12.3415 19.6585 13.125 20.625 13.125Z" fill="#3C3C3C"/>
<path d="M6.625 20.125H4C3.03487 20.125 2.25 19.3401 2.25 18.375V4.375C2.25 3.40987 3.03487 2.625 4 2.625H6.625V4.375H4V18.375H6.625V20.125Z" fill="#3C3C3C"/>
</svg>
