<svg width="29" height="28" viewBox="0 0 29 28" fill="none" xmlns="http://www.w3.org/2000/svg">
<path d="M19.8004 4.375C16.2501 4.375 14.5001 7.875 14.5001 7.875C14.5001 7.875 12.7501 4.375 9.19976 4.375C6.31445 4.375 4.0296 6.78891 4.00007 9.6693C3.93991 15.6483 8.74312 19.9002 14.0079 23.4735C14.153 23.5723 14.3245 23.6251 14.5001 23.6251C14.6756 23.6251 14.8471 23.5723 14.9923 23.4735C20.2565 19.9002 25.0597 15.6483 25.0001 9.6693C24.9705 6.78891 22.6857 4.375 19.8004 4.375Z" stroke="#3C3C3C" stroke-width="1.75" stroke-linecap="round" stroke-linejoin="round"/>
<path d="M3.125 14H9.25L11.875 8.75L14.5 17.5L17.125 12.25L18.875 15.75H25.875" stroke="#3C3C3C" stroke-width="1.75" stroke-linecap="round" stroke-linejoin="round"/>
</svg>
