<svg width="38" height="38" viewBox="0 0 38 38" fill="none" xmlns="http://www.w3.org/2000/svg">
<path d="M18.9998 3.16663C10.2693 3.16663 3.1665 10.2695 3.1665 19C3.1665 27.7305 10.2693 34.8333 18.9998 34.8333C27.7303 34.8333 34.8332 27.7305 34.8332 19C34.8332 10.2695 27.7303 3.16663 18.9998 3.16663ZM6.33317 19C6.33317 17.5765 6.58017 16.2101 7.01559 14.9324L9.49984 17.4166L12.6665 20.5833V23.75L15.8332 26.9166L17.4165 28.5V31.5574C11.1798 30.7736 6.33317 25.4473 6.33317 19ZM29.0223 26.7155C27.9884 25.8827 26.4209 25.3333 25.3332 25.3333V23.75C25.3332 22.9101 24.9995 22.1047 24.4057 21.5108C23.8118 20.9169 23.0064 20.5833 22.1665 20.5833H15.8332V15.8333C16.673 15.8333 17.4785 15.4997 18.0723 14.9058C18.6662 14.3119 18.9998 13.5065 18.9998 12.6666V11.0833H20.5832C21.423 11.0833 22.2285 10.7497 22.8223 10.1558C23.4162 9.56193 23.7498 8.75648 23.7498 7.91663V7.26588C28.3858 9.14846 31.6665 13.6958 31.6665 19C31.6659 21.794 30.7356 24.5084 29.0223 26.7155Z" fill="#4369B2"/>
</svg>
